<svg width="29" height="29" viewBox="0 0 29 29" fill="none" xmlns="http://www.w3.org/2000/svg">
<rect y="8.02344" width="4.01112" height="4.01112" fill="#2F2F2F"/>
<rect y="12.0332" width="4.01112" height="4.01112" fill="#2F2F2F"/>
<rect x="4.01562" y="16.0449" width="4.01112" height="4.01112" fill="#2F2F2F"/>
<rect x="8.03125" y="20.0547" width="4.01112" height="4.01112" fill="#2F2F2F"/>
<rect x="16.0469" y="20.0547" width="4.01112" height="4.01112" fill="#2F2F2F"/>
<rect x="20.0547" y="16.0449" width="4.01112" height="4.01112" fill="#2F2F2F"/>
<rect x="24.0781" y="12.0332" width="4.01112" height="4.01112" fill="#2F2F2F"/>
<rect x="24.0781" y="8.02344" width="4.01112" height="4.01112" fill="#2F2F2F"/>
<rect x="24.0781" y="4.01074" width="4.01112" height="4.01112" fill="#2F2F2F"/>
<rect x="20.0547" width="4.01112" height="4.01112" fill="#2F2F2F"/>
<rect x="16.0469" width="4.01112" height="4.01112" fill="#2F2F2F"/>
<rect x="12.0391" y="4.01074" width="4.01112" height="4.01112" fill="#2F2F2F"/>
<rect x="8.03125" width="4.01112" height="4.01112" fill="#2F2F2F"/>
<rect x="4.01562" width="4.01112" height="4.01112" fill="#2F2F2F"/>
<rect y="4.01074" width="4.01112" height="4.01112" fill="#2F2F2F"/>
<rect y="4.01074" width="4.01112" height="4.01112" fill="#2F2F2F"/>
<rect x="4.01562" y="4.01074" width="4.01112" height="4.01112" fill="#FF0000"/>
<rect x="4.01562" y="8.02344" width="4.01112" height="4.01112" fill="#FF0000"/>
<rect x="4.01562" y="12.0332" width="4.01112" height="4.01112" fill="#FF0000"/>
<rect x="4.01562" y="12.0332" width="4.01112" height="4.01112" fill="#A50000"/>
<rect x="8.03125" y="12.0332" width="4.01112" height="4.01112" fill="#FF0000"/>
<rect x="8.03125" y="16.0449" width="4.01112" height="4.01112" fill="#A50000"/>
<rect x="12.0391" y="16.0449" width="4.01112" height="4.01112" fill="#FF0000"/>
<rect x="16.0469" y="16.0449" width="4.01112" height="4.01112" fill="#FF0000"/>
<rect x="16.0469" y="12.0332" width="4.01112" height="4.01112" fill="#FF0000"/>
<rect x="20.0547" y="12.0332" width="4.01112" height="4.01112" fill="#FF0000"/>
<rect x="20.0547" y="4.01074" width="4.01112" height="4.01112" fill="#FF9090"/>
<rect x="20.0547" y="8.02344" width="4.01112" height="4.01112" fill="#FF0000"/>
<rect x="16.0469" y="8.02344" width="4.01112" height="4.01112" fill="#FF0000"/>
<rect x="12.0391" y="8.02344" width="4.01112" height="4.01112" fill="#FF0000"/>
<rect x="8.03125" y="8.02344" width="4.01112" height="4.01112" fill="#FF0000"/>
<rect x="8.03125" y="4.01074" width="4.01112" height="4.01112" fill="#FE9292"/>
<rect x="12.0391" y="12.0332" width="4.01112" height="4.01112" fill="#FF0000"/>
<rect x="16.0469" y="4.01074" width="4.01112" height="4.01112" fill="#FF0000"/>
<rect x="12.0391" y="20.0547" width="4.01112" height="4.01112" fill="#A50000"/>
<rect x="12.0391" y="24.0674" width="4.01112" height="4.01112" fill="#2F2F2F"/>
</svg>
